<svg width="89" height="35" viewBox="0 0 89 35" fill="none" xmlns="http://www.w3.org/2000/svg">
<path d="M18.0529 8H21.31V27H18.0529V18.6671H15.2571V27H12V8H15.2571V15.8443H18.0529V8Z" fill="#FFF6ED"/>
<path d="M24.586 8H29.6889L32.1589 27H28.9017L28.2503 21.8971H25.9432L25.3189 27H22.0617L24.586 8ZM26.296 19.0743H27.8974L27.2189 13.4557H27.0017L26.296 19.0743Z" fill="#FFF6ED"/>
<path d="M32.9138 8H36.1709V24.1771H39.7538V27H32.9138V8Z" fill="#FFF6ED"/>
<path d="M40.5477 8H43.8048V24.1771H47.3877V27H40.5477V8Z" fill="#FFF6ED"/>
<path d="M62.4157 8H65.6729V27H62.4157V8Z" fill="#FFF6ED"/>
<path d="M68.9582 8H74.0611L76.5311 27H73.2739L72.6225 21.8971H70.3154L69.6911 27H66.4339L68.9582 8ZM70.6682 19.0743H72.2696L71.5911 13.4557H71.3739L70.6682 19.0743Z" fill="#FFF6ED"/>
<path d="M56.0892 13.9946C56.1243 13.9946 56.1594 13.9946 56.1955 13.9946C56.3109 13.9946 56.4263 13.9948 56.5418 13.9951C56.622 13.9951 56.7023 13.9952 56.7825 13.9952C56.9933 13.9953 57.2041 13.9957 57.4149 13.996C57.6302 13.9964 57.8454 13.9965 58.0607 13.9967C58.4828 13.997 58.9048 13.9976 59.3269 13.9983C59.3019 14.1596 59.2569 14.3036 59.197 14.4553C59.1818 14.4946 59.1818 14.4946 59.1663 14.5347C59.1319 14.6232 59.0973 14.7115 59.0628 14.7999C59.025 14.8971 58.9873 14.9942 58.9496 15.0914C58.9219 15.1626 58.8942 15.2339 58.8665 15.3051C58.7562 15.5891 58.6468 15.8735 58.5379 16.1581C58.5094 16.2325 58.4809 16.307 58.4524 16.3814C58.3388 16.6779 58.3388 16.6779 58.2253 16.9744C58.0464 17.4422 57.8669 17.9097 57.6783 18.3738C57.6651 18.4064 57.652 18.4389 57.6384 18.4724C57.2204 19.4924 56.4586 20.2779 55.4322 20.7271C54.9143 20.9419 54.3757 21.0537 53.8147 21.0517C53.763 21.0517 53.763 21.0517 53.7103 21.0517C53.5972 21.0516 53.4841 21.0514 53.3711 21.0511C53.2924 21.0511 53.2137 21.051 53.1349 21.051C52.9284 21.0509 52.7218 21.0506 52.5152 21.0502C52.3042 21.0499 52.0931 21.0497 51.8821 21.0495C51.4685 21.0492 51.0548 21.0486 50.6412 21.0479C50.6983 20.8776 50.757 20.7082 50.8207 20.5401C50.8358 20.5003 50.8509 20.4604 50.8664 20.4193C50.8828 20.3762 50.8991 20.3331 50.9155 20.29C50.9328 20.2442 50.9502 20.1984 50.9675 20.1525C51.0237 20.0043 51.0799 19.856 51.1362 19.7078C51.1556 19.6566 51.175 19.6055 51.1944 19.5544C51.2735 19.346 51.3526 19.1377 51.4318 18.9293C51.5333 18.662 51.6347 18.3946 51.7355 18.1271C51.8059 17.9404 51.8766 17.7538 51.9473 17.5673C51.976 17.4914 52.0047 17.4154 52.0332 17.3395C52.5484 15.9682 53.2134 14.9407 54.6013 14.292C55.0683 14.0893 55.5811 13.9927 56.0892 13.9946Z" fill="#FFF6ED"/>
</svg>
